<?xml version="1.0" standalone="no"?>
<!DOCTYPE svg PUBLIC "-//W3C//DTD SVG 20010904//EN"
 "http://www.w3.org/TR/2001/REC-SVG-20010904/DTD/svg10.dtd">
<svg version="1.0" xmlns="http://www.w3.org/2000/svg"
 width="1670.000000pt" height="1670.000000pt" viewBox="0 0 1670.000000 1670.000000"
 preserveAspectRatio="xMidYMid meet">

<g transform="translate(0.000000,1670.000000) scale(0.100000,-0.100000)"
fill="#000000" stroke="none">
<path d="M8117 9266 l-227 -494 0 -1322 c0 -727 -4 -1320 -8 -1318 -5 2 -299
171 -655 376 l-646 374 26 56 c80 178 78 170 61 205 -8 17 -131 289 -274 604
-142 315 -262 567 -265 560 -11 -19 -1289 -2797 -1289 -2801 0 -1 267 100 593
226 325 125 628 242 672 259 l81 30 1082 -625 1082 -625 1082 625 1082 625 81
-30 c44 -17 347 -134 673 -259 325 -126 592 -227 592 -226 0 4 -1278 2782
-1289 2801 -3 7 -123 -245 -265 -560 -143 -315 -266 -587 -274 -604 -17 -35
-19 -27 61 -205 l26 -56 -646 -374 c-356 -205 -650 -374 -655 -376 -4 -2 -8
591 -8 1318 l0 1322 -227 494 c-125 272 -230 494 -233 494 -3 0 -108 -222
-233 -494z"/>
</g>
</svg>
